<mxfile host="app.diagrams.net" agent="Mozilla/5.0 (Windows NT 10.0; Win64; x64) AppleWebKit/537.36 (KHTML, like Gecko) Chrome/133.0.0.0 Safari/537.36 Edg/133.0.0.0" version="26.2.12">
  <diagram name="Pagina-1" id="If3uVRzUwgf7AavsxgMt">
    <mxGraphModel dx="979" dy="519" grid="1" gridSize="10" guides="1" tooltips="1" connect="1" arrows="1" fold="1" page="1" pageScale="1" pageWidth="827" pageHeight="1169" math="0" shadow="0">
      <root>
        <mxCell id="0" />
        <mxCell id="1" parent="0" />
        <mxCell id="eXZCC9MjRsluqyA0-eMw-1" value="Solution architecture&lt;div&gt;Paul Meindersma&lt;/div&gt;&lt;div&gt;13 April 2025&lt;/div&gt;" style="text;html=1;align=left;verticalAlign=middle;whiteSpace=wrap;rounded=0;" vertex="1" parent="1">
          <mxGeometry x="10" y="20" width="170" height="50" as="geometry" />
        </mxCell>
        <mxCell id="eXZCC9MjRsluqyA0-eMw-2" value="Energy Management" style="html=1;outlineConnect=0;whiteSpace=wrap;fillColor=#EBEBEB;shape=mxgraph.archimate3.application;appType=proc;archiType=rounded;" vertex="1" parent="1">
          <mxGeometry x="40" y="80" width="600" height="30" as="geometry" />
        </mxCell>
        <mxCell id="eXZCC9MjRsluqyA0-eMw-3" value="Energy saving" style="html=1;outlineConnect=0;whiteSpace=wrap;fillColor=#EBEBEB;shape=mxgraph.archimate3.application;appType=generic;archiType=oct;" vertex="1" parent="1">
          <mxGeometry x="680" y="75" width="100" height="40" as="geometry" />
        </mxCell>
        <mxCell id="eXZCC9MjRsluqyA0-eMw-6" value="" style="edgeStyle=elbowEdgeStyle;html=1;endArrow=none;elbow=vertical;rounded=0;exitX=1;exitY=0.5;exitDx=0;exitDy=0;exitPerimeter=0;entryX=0;entryY=0.5;entryDx=0;entryDy=0;entryPerimeter=0;" edge="1" parent="1" source="eXZCC9MjRsluqyA0-eMw-2" target="eXZCC9MjRsluqyA0-eMw-3">
          <mxGeometry width="160" relative="1" as="geometry">
            <mxPoint x="330" y="310" as="sourcePoint" />
            <mxPoint x="490" y="310" as="targetPoint" />
          </mxGeometry>
        </mxCell>
        <mxCell id="eXZCC9MjRsluqyA0-eMw-7" value="Energy&lt;div&gt;dashboarding&lt;/div&gt;" style="html=1;outlineConnect=0;whiteSpace=wrap;fillColor=#EBEBEB;shape=mxgraph.archimate3.application;appType=func;archiType=rounded;" vertex="1" parent="1">
          <mxGeometry x="360" y="150" width="120" height="50" as="geometry" />
        </mxCell>
        <mxCell id="eXZCC9MjRsluqyA0-eMw-8" value="Energy&lt;div&gt;control&lt;/div&gt;" style="html=1;outlineConnect=0;whiteSpace=wrap;fillColor=#EBEBEB;shape=mxgraph.archimate3.application;appType=func;archiType=rounded;" vertex="1" parent="1">
          <mxGeometry x="200" y="150" width="120" height="50" as="geometry" />
        </mxCell>
        <mxCell id="eXZCC9MjRsluqyA0-eMw-9" value="" style="edgeStyle=elbowEdgeStyle;html=1;endArrow=block;elbow=vertical;endFill=0;dashed=1;rounded=0;exitX=0.5;exitY=0;exitDx=0;exitDy=0;exitPerimeter=0;entryX=0.632;entryY=1.033;entryDx=0;entryDy=0;entryPerimeter=0;" edge="1" parent="1" source="eXZCC9MjRsluqyA0-eMw-7" target="eXZCC9MjRsluqyA0-eMw-2">
          <mxGeometry width="160" relative="1" as="geometry">
            <mxPoint x="330" y="310" as="sourcePoint" />
            <mxPoint x="99" y="109" as="targetPoint" />
          </mxGeometry>
        </mxCell>
        <mxCell id="eXZCC9MjRsluqyA0-eMw-10" value="" style="edgeStyle=elbowEdgeStyle;html=1;endArrow=block;elbow=vertical;endFill=0;dashed=1;rounded=0;" edge="1" parent="1" source="eXZCC9MjRsluqyA0-eMw-8">
          <mxGeometry width="160" relative="1" as="geometry">
            <mxPoint x="110" y="150" as="sourcePoint" />
            <mxPoint x="260" y="110" as="targetPoint" />
          </mxGeometry>
        </mxCell>
        <mxCell id="eXZCC9MjRsluqyA0-eMw-11" value="Energy&lt;div&gt;measurement&lt;/div&gt;" style="html=1;outlineConnect=0;whiteSpace=wrap;fillColor=#EBEBEB;shape=mxgraph.archimate3.application;appType=func;archiType=rounded;" vertex="1" parent="1">
          <mxGeometry x="35" y="150" width="125" height="50" as="geometry" />
        </mxCell>
        <mxCell id="eXZCC9MjRsluqyA0-eMw-12" value="" style="edgeStyle=elbowEdgeStyle;html=1;endArrow=block;elbow=vertical;endFill=0;dashed=1;rounded=0;exitX=0.5;exitY=0;exitDx=0;exitDy=0;exitPerimeter=0;" edge="1" parent="1" source="eXZCC9MjRsluqyA0-eMw-11">
          <mxGeometry width="160" relative="1" as="geometry">
            <mxPoint x="270" y="160" as="sourcePoint" />
            <mxPoint x="98" y="110" as="targetPoint" />
          </mxGeometry>
        </mxCell>
        <mxCell id="eXZCC9MjRsluqyA0-eMw-13" value="Energy&lt;div&gt;history&lt;/div&gt;" style="html=1;outlineConnect=0;whiteSpace=wrap;fillColor=#EBEBEB;shape=mxgraph.archimate3.application;appType=func;archiType=rounded;" vertex="1" parent="1">
          <mxGeometry x="520" y="150" width="120" height="50" as="geometry" />
        </mxCell>
        <mxCell id="eXZCC9MjRsluqyA0-eMw-14" value="" style="edgeStyle=elbowEdgeStyle;html=1;endArrow=block;elbow=vertical;endFill=0;dashed=1;rounded=0;exitX=0.5;exitY=0;exitDx=0;exitDy=0;exitPerimeter=0;" edge="1" parent="1" source="eXZCC9MjRsluqyA0-eMw-13">
          <mxGeometry width="160" relative="1" as="geometry">
            <mxPoint x="580" y="140" as="sourcePoint" />
            <mxPoint x="580" y="110" as="targetPoint" />
          </mxGeometry>
        </mxCell>
      </root>
    </mxGraphModel>
  </diagram>
</mxfile>
